<svg xmlns="http://www.w3.org/2000/svg" viewBox="0 0 231.96 82"><defs><style>.cls-1{fill:#feba57;}.cls-2,.cls-4{fill:#123164;}.cls-2{opacity:0.15;}.cls-3{fill:none;}.cls-5{fill:#2072fc;}</style></defs><g id="Layer_2" data-name="Layer 2"><g id="Layer_1_copy_8" data-name="Layer 1 copy 8"><circle class="cls-1" cx="167.54" cy="39" r="20"/><path class="cls-2" d="M167.54,2a37,37,0,1,0,37,37A37,37,0,0,0,167.54,2Zm0,70.83A33.83,33.83,0,1,1,201.36,39,33.83,33.83,0,0,1,167.54,72.83Z"/><circle class="cls-3" cx="97.54" cy="39" r="10"/><path class="cls-4" d="M29.24,47.5H13.52a1.21,1.21,0,0,1-1.21-1.21V9.66a1.21,1.21,0,0,0-1.2-1.21H1.2A1.21,1.21,0,0,0,0,9.66V57.8A1.2,1.2,0,0,0,1.2,59h28a1.2,1.2,0,0,0,1.2-1.2V48.7A1.2,1.2,0,0,0,29.24,47.5Z"/><path class="cls-4" d="M142.77,48.56h-3.19c-2.73,0-3.74-1-3.74-3.39V30.25a1.2,1.2,0,0,1,1.2-1.2h5.66a1.2,1.2,0,0,0,1.2-1.21V20a1.2,1.2,0,0,0-1.2-1.2H137a1.2,1.2,0,0,1-1.2-1.2V10.23a1.2,1.2,0,0,0-1.2-1.2h-9.91a1.2,1.2,0,0,0-1.2,1.2v7.39a1.21,1.21,0,0,1-1.21,1.2h-2.49a1.2,1.2,0,0,0-1.2,1.2v7.82a1.21,1.21,0,0,0,1.2,1.21h2.49a1.2,1.2,0,0,1,1.21,1.2V45c0,10.44,5.83,14,14.18,14h5.06A1.21,1.21,0,0,0,144,57.8v-8A1.21,1.21,0,0,0,142.77,48.56Z"/><path class="cls-4" d="M215.48,18.39a12.76,12.76,0,0,0-9.2,3.61c-.77.67-1,.1-1-.92V20a1.2,1.2,0,0,0-1.2-1.2H194.2A1.2,1.2,0,0,0,193,20V57.8a1.2,1.2,0,0,0,1.2,1.2h9.91a1.2,1.2,0,0,0,1.2-1.2V37.18c0-5.47,3-8.49,7.71-8.49s6.7,3,6.7,8.49V57.8a1.21,1.21,0,0,0,1.21,1.2h9.83a1.2,1.2,0,0,0,1.2-1.2V35.53C232,24.73,224.77,18.39,215.48,18.39Z"/><path class="cls-4" d="M97.54,19A20,20,0,0,0,89,20.93h0v-.88a1.23,1.23,0,0,0-1.23-1.23H77.93a1.23,1.23,0,0,0-1.23,1.23V70.92a1.23,1.23,0,0,0,1.23,1.23h9.85A1.23,1.23,0,0,0,89,70.92V57.07h0A20,20,0,1,0,97.54,19Zm0,30a10,10,0,1,1,10-10A10,10,0,0,1,97.54,49Z"/><path class="cls-4" d="M51.46,19A20,20,0,1,0,70.52,47.7,1.19,1.19,0,0,0,69.44,46H60.15a1.22,1.22,0,0,0-.82.33A10,10,0,0,1,43,42H71.23a1.22,1.22,0,0,0,1.2-1.1,17,17,0,0,0,.11-1.9A20,20,0,0,0,51.46,19ZM43.37,35A10,10,0,0,1,61.7,35Z"/><circle class="cls-5" cx="184.54" cy="8" r="8"/><circle class="cls-5" cx="168.54" cy="74" r="8"/></g></g></svg>