<?xml version="1.0"?>
<svg xmlns="http://www.w3.org/2000/svg" xmlns:xlink="http://www.w3.org/1999/xlink" xmlns:svgjs="http://svgjs.com/svgjs" version="1.1" width="512" height="512" x="0" y="0" viewBox="0 0 510 510" style="enable-background:new 0 0 512 512" xml:space="preserve" class=""><g><path xmlns="http://www.w3.org/2000/svg" d="m0 246.724v239.33l149.29-140.88c-130.966-86.37-61.55-40.598-149.29-98.45z" fill="#38003c" data-original="#000000" style=""/><path xmlns="http://www.w3.org/2000/svg" d="m360.72 345.174 149.28 140.88v-239.33c-.06.04-149.22 98.411-149.28 98.45z" fill="#38003c" data-original="#000000" style=""/><path xmlns="http://www.w3.org/2000/svg" d="m263.26 409.444c-4.996 3.304-11.513 3.311-16.52 0l-71.72-47.3-152.27 143.69h464.5l-152.26-143.69z" fill="#38003c" data-original="#000000" style=""/><path xmlns="http://www.w3.org/2000/svg" d="m248.387 6.665-41.727 36.789h96.68l-41.727-36.789c-3.779-3.332-9.447-3.332-13.226 0z" fill="#38003c" data-original="#000000" style=""/><path xmlns="http://www.w3.org/2000/svg" d="m53.83 246.284c0-34.385 0-32.474 0-68.1-34.605 30.506-25.145 22.166-44.19 38.96 0 0 22.249 14.676 44.19 29.14z" fill="#38003c" data-original="#000000" style=""/><path xmlns="http://www.w3.org/2000/svg" d="m500.36 217.144c-18.72-16.507-7.886-6.956-44.19-38.96v68.1c21.908-14.442 44.19-29.14 44.19-29.14z" fill="#38003c" data-original="#000000" style=""/><path xmlns="http://www.w3.org/2000/svg" d="m255 378.954c49.145-32.405 113.848-75.077 171.17-112.88v-182.62c0-5.523-4.477-10-10-10h-322.34c-5.523 0-10 4.477-10 10v182.62c149.534 98.618 92.855 61.242 171.17 112.88zm-77.14-235.84h154.28c8.28 0 15 6.72 15 15 0 8.29-6.72 15-15 15h-154.28c-8.28 0-15-6.71-15-15 0-8.28 6.72-15 15-15zm-15 90.75v-.1c0-7.7 5.82-14.06 13.3-14.9h157.68c7.48.84 13.3 7.2 13.3 14.9v.1c-.05 8.24-6.75 14.9-15 14.9h-154.28c-8.25 0-14.95-6.66-15-14.9z" fill="#38003c" data-original="#000000" style=""/></g></svg>
